<svg width="29" height="29" viewBox="0 0 29 29" fill="none" xmlns="http://www.w3.org/2000/svg">
<g id="icons/Star/Filled">
<path id="Shape" d="M13.3905 3.77841C13.8103 2.80564 15.1897 2.80564 15.6094 3.77841L18.2436 9.88277C18.4214 10.2947 18.8127 10.5742 19.26 10.6088L26.0154 11.1307C27.0992 11.2145 27.5299 12.5752 26.6916 13.2673L21.6113 17.4617C21.2529 17.7576 21.096 18.2327 21.2076 18.6838L22.7711 25.0014C23.0283 26.0403 21.9075 26.8759 20.9852 26.3329L15.113 22.8759C14.7347 22.6532 14.2653 22.6532 13.887 22.8759L8.01479 26.3329C7.09247 26.8759 5.97171 26.0403 6.22883 25.0014L7.79234 18.6838C7.90398 18.2327 7.74705 17.7576 7.38871 17.4617L2.30841 13.2673C1.47011 12.5752 1.90077 11.2145 2.98463 11.1307L9.74 10.6088C10.1873 10.5742 10.5786 10.2947 10.7563 9.88277L13.3905 3.77841Z" fill="#226BFC"/>
</g>
</svg>
