<svg width="51" height="54" viewBox="0 0 51 54" fill="none" xmlns="http://www.w3.org/2000/svg">
<g id="Abstract Wave Curly Line 1 by Streamlinehq">
<path id="Vector" d="M7.2959 17.5195C7.37458 17.9159 8.02186 18.4622 8.25632 18.5594C9.23137 18.9652 10.2384 18.8465 11.2494 18.6557C14.0233 18.1327 16.3363 15.9207 17.2767 13.0759C17.0457 12.9181 17.8766 14.9953 17.9691 15.182C18.7622 16.7831 19.9493 18.2745 21.552 18.9629C24.9466 20.4209 28.6598 17.8286 29.6264 14.2162C29.6293 14.2059 29.7484 14.6049 29.7955 14.7121C29.9628 15.0914 30.1837 15.4369 30.4048 15.7815C30.9661 16.6569 31.5357 17.5655 32.2406 18.3166C34.4851 20.7075 38.2141 21.7782 41.008 19.826" stroke="#B9880C" stroke-width="2" stroke-miterlimit="1.5" stroke-linecap="round" stroke-linejoin="round"/>
<path id="Vector_2" d="M8.64332 27.5102C8.5314 27.4229 9.43745 28.1036 9.68733 28.192C10.4783 28.4725 11.2879 28.5552 12.1168 28.488C14.9759 28.256 17.0981 26.4971 18.7717 24.1251C18.6899 23.9503 18.9022 24.4926 18.9978 24.659C19.2664 25.1278 19.5821 25.5722 19.9298 25.9761C20.8713 27.0685 22.0093 27.9986 23.3188 28.5154C27.0035 29.9706 29.3457 27.195 30.9621 24.0702C30.8973 23.9552 31.119 24.2798 31.1872 24.3925C31.3819 24.7134 31.586 25.026 31.8031 25.3303C32.5317 26.3513 33.3413 27.3325 34.3598 28.0289C37.1526 29.9388 40.5473 29.1825 42.2702 26.1" stroke="#B9880C" stroke-width="2" stroke-miterlimit="1.5" stroke-linecap="round" stroke-linejoin="round"/>
<path id="Vector_3" d="M8.86133 38.532C9.77083 38.9126 10.7856 39.0639 11.7572 39.0256C14.3869 38.9223 18.341 37.3388 19.1458 34.2769C19.4501 35.5833 20.0175 36.8317 21.2315 37.9459C24.6663 41.0976 28.9302 39.7646 30.4767 35.3376C31.195 36.9357 32.1135 38.3709 33.5039 39.5103C36.8543 42.2559 40.8113 40.1704 42.9744 36.8714" stroke="#B9880C" stroke-width="2" stroke-miterlimit="1.5" stroke-linecap="round" stroke-linejoin="round"/>
</g>
</svg>
