<svg width="51" height="54" viewBox="0 0 51 54" fill="none" xmlns="http://www.w3.org/2000/svg">
<g id="Abstract Wave Curly Line 1 by Streamlinehq">
<path id="Vector" d="M16.9826 46.0952C17.3519 46.0108 17.8607 45.3159 17.9513 45.0642C18.3294 44.0174 18.2188 42.9364 18.0411 41.851C17.5538 38.8732 15.4934 36.3902 12.8434 35.3806C12.6964 35.6285 14.6313 34.7365 14.8053 34.6373C16.2966 33.7859 17.6859 32.5115 18.3272 30.7909C19.6854 27.1467 17.2706 23.1605 13.9056 22.1229C13.896 22.1198 14.2677 21.9919 14.3676 21.9413C14.7208 21.7617 15.0427 21.5246 15.3637 21.2872C16.1791 20.6846 17.0255 20.0732 17.7251 19.3164C19.9523 16.9069 20.9497 12.9037 19.1312 9.90447" stroke="#267BFC" stroke-width="2" stroke-miterlimit="1.5" stroke-linecap="round" stroke-linejoin="round"/>
<path id="Vector_2" d="M26.289 44.649C26.2077 44.7691 26.8418 43.7964 26.9241 43.5282C27.1855 42.679 27.2624 41.8099 27.1998 40.9201C26.9838 37.8508 25.3454 35.5726 23.1358 33.7759C22.973 33.8637 23.4781 33.6358 23.6332 33.5331C24.0698 33.2448 24.4838 32.9059 24.86 32.5327C25.8776 31.522 26.744 30.3002 27.2254 28.8945C28.5809 24.9389 25.9954 22.4244 23.0846 20.6892C22.9775 20.7587 23.2799 20.5208 23.3849 20.4476C23.6838 20.2385 23.9749 20.0194 24.2584 19.7864C25.2095 19.0041 26.1236 18.135 26.7723 17.0416C28.5513 14.0435 27.8468 10.3992 24.9755 8.54971" stroke="#267BFC" stroke-width="2" stroke-miterlimit="1.5" stroke-linecap="round" stroke-linejoin="round"/>
<path id="Vector_3" d="M36.5555 44.4146C36.91 43.4382 37.051 42.3488 37.0153 41.3058C36.9191 38.4827 35.444 34.2379 32.5918 33.3739C33.8088 33.0472 34.9717 32.4381 36.0096 31.1348C38.9454 27.4475 37.7037 22.8701 33.5799 21.2099C35.0686 20.4388 36.4054 19.4527 37.4668 17.9601C40.0244 14.3634 38.0817 10.1154 35.0087 7.79334" stroke="#267BFC" stroke-width="2" stroke-miterlimit="1.5" stroke-linecap="round" stroke-linejoin="round"/>
</g>
</svg>
